<svg width="76" height="76" viewBox="0 0 76 76" fill="none" xmlns="http://www.w3.org/2000/svg">
<path d="M19.238 7.25031C7.80624 13.423 11.4427 25.2686 14.69 30.4198C7.20258 35.3862 4.58567 38.9178 4.21314 40.0628C-0.950494 57.8275 14.6471 60.9545 23.0914 60.2974C29.3072 75.0302 34.1048 72.9622 43.8572 71.1159C51.659 69.6389 55.2297 62.7896 55.2324 58.4647C61.478 59.9887 64.9893 56.1954 67.1735 54.1702C76.2171 46.2028 70.0038 36.4072 65.2571 31.6409C69.4211 28.358 74.2988 17.8714 64.5746 9.10379C54.8504 0.3362 42.4358 5.34276 37.444 8.94199C32.2664 2.79879 23.1493 5.25454 19.238 7.25031Z" fill="current"/>
<path d="M30.6772 32.2866C31.0919 32.6954 31.48 33.1862 32.0499 33.3811C32.5946 33.5674 33.1818 33.5781 33.7108 33.4981C34.6679 33.3534 35.2118 32.632 35.7982 31.9512" stroke="#424242" stroke-width="2" stroke-linecap="round"/>
<path d="M39.1791 30.8341C39.7277 31.3067 40.4185 31.9515 41.1724 31.8589C41.5257 31.8155 41.8898 31.9254 42.2627 31.8552C43.5803 31.6072 44.4566 30.4991 44.9254 29.3391" stroke="#424242" stroke-width="2" stroke-linecap="round"/>
<path d="M27.5751 37.7588C31.9297 40.3774 42.1125 43.3737 48.0069 34.4105" stroke="#424242" stroke-width="2" stroke-linecap="round"/>
</svg>
