<svg width="86" height="85" viewBox="0 0 86 85" fill="none" xmlns="http://www.w3.org/2000/svg">
<circle cx="73.4708" cy="12.4708" r="12.4708" fill="#F4406B"/>
<path d="M74.5914 14.7672H72.7116L72.3672 7.01489H74.9358L74.5914 14.7672ZM72.3672 17.4814C72.3672 16.983 72.4916 16.6362 72.7403 16.4412C72.9891 16.2353 73.2904 16.1324 73.6444 16.1324C73.9887 16.1324 74.2805 16.2353 74.5197 16.4412C74.7684 16.6362 74.8928 16.983 74.8928 17.4814C74.8928 17.9581 74.7684 18.3048 74.5197 18.5215C74.2805 18.7274 73.9887 18.8303 73.6444 18.8303C73.2904 18.8303 72.9891 18.7274 72.7403 18.5215C72.4916 18.3048 72.3672 17.9581 72.3672 17.4814Z" fill="white"/>
<path d="M28.6145 29.2315C27.2624 24.821 25.7034 16 30.2848 16C34.8662 16 36.6478 21.6134 36.966 24.4201V32.5995C38.8749 26.8258 43.7903 15.7113 48.1808 17.4434C52.5713 19.1756 47.7831 28.2692 44.8402 32.5995C48.7376 29.0711 57.2481 22.2549 60.1114 23.2172C62.9748 24.1795 60.5091 27.7881 58.9184 29.4721C58.0088 30.5611 56.4003 32.4039 55.4173 33.2963C57.4793 32.4065 62.9779 30.8098 66.3154 32.1184C69.7514 33.4656 68.8606 36.6893 67.9856 38.1327C67.2698 39.1752 65.2655 41.4526 62.9748 42.2225C60.6841 42.9923 56.4527 43.8263 54.6233 44.147C60.4296 43.7461 72.2807 43.6659 73.2351 46.5528C74.1896 49.4397 70.7695 50.6425 68.9401 50.8831C65.3609 51.3642 57.3912 52.2303 54.1461 51.8454C59.0774 53.77 68.7492 58.8701 67.9856 63.874C67.8266 64.6759 66.4108 66.0392 62.0203 65.0769C56.5322 63.874 53.1917 60.9872 52.4758 60.506C51.76 60.0249 63.452 73.7375 62.9748 77.3461C62.4976 80.9547 59.3956 80.233 58.4411 79.2707C57.6776 78.5009 53.987 73.1762 52.2372 70.6101C53.9075 73.5771 57.0095 80.0405 56.055 82.1576C55.1006 84.2746 52.3167 83.6812 51.0441 83.1199C49.9306 82.5585 47.465 80.7141 46.5105 77.8273L42.4541 70.3695C43.0108 74.4592 43.4563 82.9755 40.7838 84.3227C40.1475 84.8841 38.6363 85.4294 37.6818 83.1199C36.4998 80.2597 34.6152 71.7323 34.8124 69.469C34.3256 74.3804 32.4649 84.0332 28.8532 83.8416C28.2964 84.0822 27.0874 83.8897 26.7056 81.1953C26.3239 78.5009 26.8647 70.2893 27.1829 66.5203C25.5126 71.8129 21.0744 82.6868 16.6839 83.8416C16.1271 83.9218 15.1091 83.5048 15.4908 81.1953C15.8726 78.8858 18.5133 71.0912 19.7859 67.4826C17.3202 71.5724 11.1958 79.6556 6.42354 79.2707C5.54863 79.1905 4.61009 77.6829 7.85522 72.2941C11.1004 66.9053 14.9341 63.1523 16.4453 61.9494C12.2298 64.6759 3.22615 69.9365 0.935472 69.1666C-1.35521 68.3968 1.09455 65.3175 2.60576 63.874L13.5819 55.2134C10.0823 56.0153 2.74892 57.2342 1.41269 55.6945C0.076454 54.1549 4.8328 51.0435 7.37801 49.6802L12.8661 47.2745C10.0823 47.4349 4.13287 47.1783 2.60575 44.8688C1.07863 42.5593 6.58263 41.0196 9.52552 40.5384C11.1163 40.2979 14.4887 39.8648 15.2522 40.0573C11.7526 38.6941 5.37366 35.3902 7.85523 33.0807C8.33246 32.359 9.85958 30.8193 12.1503 30.4344C14.4409 30.0495 18.1951 31.8778 19.7859 32.8401C18.036 29.6325 15.0613 22.6398 17.1611 20.3303C19.2609 18.0208 25.6716 25.3022 28.6145 29.2315Z" fill="#AEC9FF"/>
<path d="M37.6508 47.7977C36.4935 45.0975 37.0079 42.9763 37.6508 42.0119C37.6508 41.6905 38.5187 40.7578 40.0617 41.5293C41.9905 42.4937 42.4726 43.9402 42.9548 45.3868C43.3406 46.544 42.7941 48.1191 42.4726 48.7621C41.3475 49.5657 38.808 50.4979 37.6508 47.7977Z" fill="white"/>
<path d="M28.9713 50.5072C27.8141 47.8069 28.3284 45.6858 28.9713 44.7214C28.9713 44.3999 29.8393 43.4673 31.3823 44.2388C33.311 45.2031 33.7932 46.6497 34.2754 48.0962C34.6611 49.2535 34.1147 50.8286 33.7932 51.4715C32.6681 52.2752 30.1286 53.2074 28.9713 50.5072Z" fill="white"/>
<path d="M36.6378 45.7979C35.909 44.241 36.2329 43.0179 36.6378 42.4619C36.6378 42.2765 37.1845 41.7388 38.1562 42.1836C39.3709 42.7397 39.6746 43.5737 39.9783 44.4078C40.2212 45.075 39.877 45.9833 39.6746 46.3539C38.966 46.8173 37.3667 47.3548 36.6378 45.7979Z" fill="#362F29"/>
<path d="M27.9584 48.5076C27.2296 46.9507 27.5535 45.7276 27.9584 45.1716C27.9584 44.9862 28.505 44.4485 29.4768 44.8933C30.6915 45.4494 30.9951 46.2834 31.2988 47.1175C31.5418 47.7848 31.1976 48.693 30.9951 49.0637C30.2866 49.527 28.6872 50.0645 27.9584 48.5076Z" fill="#362F29"/>
</svg>
