<svg width="96" height="90" viewBox="0 0 96 90" fill="none" xmlns="http://www.w3.org/2000/svg">
<path d="M37.4249 17.3055C35.6565 11.537 33.6175 0 39.6095 0C45.6015 0 47.9317 7.34173 48.3478 11.0126V21.7105C50.8445 14.159 57.2734 -0.377575 63.0157 1.88787C68.758 4.15332 62.4955 16.0469 58.6465 21.7105C63.7439 17.0957 74.8748 8.18078 78.6198 9.43937C82.3647 10.6979 79.1399 15.4176 77.0594 17.6202C75.8697 19.0445 73.766 21.4546 72.4803 22.6219C75.1772 21.458 82.3688 19.3698 86.7339 21.0813C91.2279 22.8433 90.0628 27.0595 88.9185 28.9474C87.9822 30.3109 85.3607 33.2895 82.3648 34.2964C79.3688 35.3032 73.8345 36.394 71.4419 36.8135C79.0359 36.2891 94.5359 36.1842 95.7843 39.96C97.0326 43.7357 92.5594 45.309 90.1668 45.6236C85.4856 46.2529 75.062 47.3856 70.8177 46.8822C77.2674 49.3994 89.9171 56.0698 88.9185 62.6145C88.7104 63.6633 86.8587 65.4463 81.1164 64.1877C73.9385 62.6145 69.5694 58.8387 68.6331 58.2094C67.6969 57.5801 82.9889 75.5149 82.3648 80.2346C81.7406 84.9543 77.6835 84.0104 76.4352 82.7518C75.4365 81.7449 70.6097 74.7808 68.3211 71.4245C70.5056 75.3052 74.5627 83.7586 73.3144 86.5275C72.066 89.2964 68.4251 88.5203 66.7607 87.7861C65.3043 87.0519 62.0794 84.6397 60.8311 80.8639L55.5257 71.1099C56.2539 76.4589 56.8365 87.5973 53.3411 89.3593C52.5089 90.0935 50.5324 90.8067 49.2841 87.7861C47.7381 84.0453 45.2732 72.8923 45.5311 69.9322C44.8945 76.3557 42.4608 88.9807 37.7371 88.73C37.0089 89.0447 35.4277 88.793 34.9283 85.2689C34.429 81.7449 35.1364 71.005 35.5525 66.0756C33.3679 72.9978 27.5632 87.2197 21.8209 88.73C21.0927 88.8349 19.7611 88.2895 20.2605 85.2689C20.7598 82.2484 24.2135 72.0538 25.8779 67.3342C22.6531 72.6831 14.643 83.2552 8.40136 82.7518C7.25706 82.6469 6.02954 80.6751 10.2738 73.6271C14.5182 66.579 19.5323 61.6705 21.5088 60.0973C15.9954 63.6633 4.21949 70.5435 1.2235 69.5367C-1.77248 68.5298 1.43156 64.5023 3.40808 62.6145L17.7638 51.2872C13.1866 52.336 3.59531 53.9302 1.84765 51.9165C0.0999942 49.9028 6.32082 45.8334 9.6497 44.0504L16.8276 40.9039C13.1866 41.1137 5.40538 40.7781 3.40806 37.7575C1.41074 34.7369 8.60942 32.7231 12.4584 32.0938C14.539 31.7792 18.9497 31.2128 19.9484 31.4646C15.3712 29.6816 7.02821 25.3604 10.2739 22.3398C10.898 21.3959 12.8953 19.3822 15.8913 18.8787C18.8873 18.3753 23.7974 20.7666 25.8779 22.0252C23.5893 17.8299 19.6987 8.68422 22.445 5.66362C25.1914 2.64302 33.5759 12.1663 37.4249 17.3055Z" fill="current"/>
<path d="M49.2436 41.5883C47.7301 38.0567 48.4028 35.2824 49.2436 34.0211C49.2436 33.6007 50.3788 32.3809 52.3969 33.3899C54.9195 34.6512 55.5501 36.5431 56.1808 38.4351C56.6853 39.9486 55.9706 42.0088 55.5501 42.8496C54.0786 43.9007 50.7572 45.1199 49.2436 41.5883Z" fill="white"/>
<path d="M37.8919 45.1323C36.3784 41.6006 37.0511 38.8263 37.8919 37.5651C37.892 37.1446 39.0271 35.9248 41.0452 36.9338C43.5678 38.1951 44.1985 40.0871 44.8291 41.979C45.3336 43.4926 44.6189 45.5527 44.1985 46.3936C42.7269 47.4446 39.4055 48.6639 37.8919 45.1323Z" fill="white"/>
<path d="M47.9186 38.9729C46.9654 36.9366 47.3891 35.337 47.9186 34.6098C47.9187 34.3673 48.6336 33.664 49.9045 34.2458C51.4932 34.9731 51.8904 36.0639 52.2876 37.1548C52.6053 38.0275 52.1552 39.2154 51.8904 39.7002C50.9637 40.3062 48.8719 41.0093 47.9186 38.9729Z" fill="#362F29"/>
<path d="M36.567 42.5169C35.6137 40.4806 36.0374 38.881 36.567 38.1537C36.567 37.9113 37.2819 37.2079 38.5529 37.7898C40.1416 38.517 40.5387 39.6079 40.9359 40.6988C41.2536 41.5715 40.8035 42.7593 40.5387 43.2441C39.612 43.8502 37.5202 44.5532 36.567 42.5169Z" fill="#362F29"/>
</svg>
