<svg width="298" height="407" viewBox="0 0 298 407" fill="none" xmlns="http://www.w3.org/2000/svg">
<path d="M180.25 97.611C176.713 86.074 172.635 63 184.619 63C196.603 63 201.263 77.6835 202.096 85.0252V106.421C207.089 91.3181 219.947 62.2449 231.431 66.7757C242.916 71.3066 230.391 95.0938 222.693 106.421C232.888 97.1915 255.15 79.3616 262.64 81.8787C270.13 84.3959 263.68 93.8353 259.519 98.2403C257.139 101.089 252.932 105.909 250.361 108.244C255.754 105.916 270.138 101.74 278.868 105.163C287.856 108.687 285.526 117.119 283.237 120.895C281.364 123.622 276.122 129.579 270.13 131.593C264.138 133.606 253.069 135.788 248.284 136.627C263.472 135.578 294.472 135.368 296.969 142.92C299.465 150.471 290.519 153.618 285.734 154.247C276.371 155.506 255.524 157.771 247.035 156.764C259.935 161.799 285.234 175.14 283.237 188.229C282.821 190.327 279.117 193.893 267.633 191.375C253.277 188.229 244.539 180.677 242.666 179.419C240.794 178.16 271.378 214.03 270.13 223.469C268.881 232.909 260.767 231.021 258.27 228.504C256.273 226.49 246.619 212.562 242.042 205.849C246.411 213.61 254.525 230.517 252.029 236.055C249.532 241.593 242.25 240.041 238.921 238.572C236.009 237.104 229.559 232.279 227.062 224.728L216.451 205.22C217.908 215.918 219.073 238.195 212.082 241.719C210.418 243.187 206.465 244.613 203.968 238.572C200.876 231.091 195.946 208.785 196.462 202.864C195.189 215.711 190.322 240.961 180.874 240.46C179.418 241.089 176.255 240.586 175.257 233.538C174.258 226.49 175.673 205.01 176.505 195.151C172.136 208.996 160.526 237.439 149.042 240.46C147.585 240.67 144.922 239.579 145.921 233.538C146.92 227.497 153.827 207.108 157.156 197.668C150.706 208.366 134.686 229.51 122.203 228.504C119.914 228.294 117.459 224.35 125.948 210.254C134.436 196.158 144.465 186.341 148.418 183.195C137.391 190.327 113.839 204.087 107.847 202.073C101.855 200.06 108.263 192.005 112.216 188.229L140.928 165.574C131.773 167.672 112.591 170.86 109.095 166.833C105.6 162.806 118.042 154.667 124.699 151.101L139.055 144.808C131.773 145.227 116.211 144.556 112.216 138.515C108.221 132.474 122.619 128.446 130.317 127.188C134.478 126.558 143.299 125.426 145.297 125.929C136.142 122.363 119.456 113.721 125.948 107.68C127.196 105.792 131.191 101.764 137.183 100.757C143.175 99.7506 152.995 104.533 157.156 107.05C152.579 98.6598 144.797 80.3684 150.29 74.3272C155.783 68.286 172.552 87.3326 180.25 97.611Z" fill="#FB5500"/>
<path d="M197.661 138.756C195.601 133.95 196.517 130.174 197.661 128.458C197.661 127.885 199.206 126.225 201.953 127.598C205.386 129.315 206.244 131.89 207.102 134.465C207.789 136.525 206.816 139.328 206.244 140.473C204.241 141.903 199.721 143.562 197.661 138.756Z" fill="white"/>
<path d="M182.212 143.579C180.152 138.772 181.068 134.997 182.212 133.28C182.212 132.708 183.757 131.048 186.504 132.421C189.937 134.138 190.795 136.713 191.653 139.287C192.34 141.347 191.367 144.151 190.795 145.295C188.792 146.726 184.272 148.385 182.212 143.579Z" fill="white"/>
<path d="M195.858 135.197C194.561 132.426 195.137 130.249 195.858 129.259C195.858 128.929 196.831 127.972 198.561 128.763C200.723 129.753 201.263 131.238 201.804 132.722C202.236 133.91 201.624 135.527 201.263 136.187C200.002 137.011 197.155 137.968 195.858 135.197Z" fill="#362F29"/>
<path d="M180.409 140.02C179.112 137.248 179.688 135.071 180.409 134.082C180.409 133.752 181.382 132.794 183.112 133.586C185.274 134.576 185.814 136.061 186.355 137.545C186.787 138.733 186.175 140.35 185.814 141.009C184.553 141.834 181.706 142.791 180.409 140.02Z" fill="#362F29"/>
<path d="M162.033 253.218C136.461 267.025 144.596 293.522 151.859 305.044C135.111 316.153 129.257 324.053 128.424 326.614C116.874 366.351 151.763 373.346 170.652 371.876C184.556 404.831 195.287 400.205 217.102 396.075C234.553 392.771 242.54 377.45 242.546 367.776C256.517 371.185 264.371 362.7 269.256 358.17C289.486 340.348 275.588 318.437 264.97 307.776C274.284 300.432 285.195 276.975 263.443 257.364C241.692 237.752 213.922 248.951 202.756 257.002C191.175 243.26 170.781 248.754 162.033 253.218Z" fill="#D6E3FF"/>
<path d="M187.62 309.22C188.548 310.134 189.416 311.232 190.691 311.668C191.909 312.085 193.223 312.109 194.406 311.93C196.547 311.606 197.763 309.993 199.075 308.47" stroke="#424242" stroke-width="3.5" stroke-linecap="round"/>
<path d="M206.637 305.971C207.865 307.028 209.41 308.47 211.096 308.263C211.887 308.166 212.701 308.412 213.535 308.255C216.482 307.7 218.442 305.221 219.491 302.627" stroke="#424242" stroke-width="3.5" stroke-linecap="round"/>
<path d="M180.681 321.46C190.422 327.318 213.199 334.02 226.384 313.971" stroke="#424242" stroke-width="3.5" stroke-linecap="round"/>
<path d="M247.546 6.20093C257.324 11.4802 254.213 21.6113 251.436 26.0169C257.84 30.2645 260.078 33.2849 260.397 34.2642C264.813 49.4577 251.473 52.1321 244.251 51.5701C238.935 64.1706 234.831 62.4018 226.491 60.8228C219.818 59.5596 216.764 53.7016 216.762 50.0027C211.42 51.3061 208.417 48.0618 206.549 46.3298C198.814 39.5155 204.128 31.1377 208.188 27.0613C204.627 24.2535 200.455 15.2847 208.772 7.78613C217.088 0.28754 227.706 4.56947 231.975 7.64775C236.404 2.3937 244.201 4.49401 247.546 6.20093Z" fill="#3CCA9A"/>
<path d="M237.763 27.6137C237.408 27.9633 237.076 28.3831 236.589 28.5498C236.123 28.7091 235.621 28.7183 235.168 28.6499C234.35 28.5261 233.885 27.9091 233.383 27.3269" stroke="#424242" stroke-width="2" stroke-linecap="round"/>
<path d="M230.492 26.3712C230.022 26.7754 229.432 27.3269 228.787 27.2477C228.485 27.2106 228.173 27.3046 227.854 27.2446C226.727 27.0324 225.978 26.0847 225.577 25.0926" stroke="#424242" stroke-width="2" stroke-linecap="round"/>
<path d="M240.416 32.2937C236.692 34.5333 227.983 37.0959 222.941 29.43" stroke="#424242" stroke-width="2" stroke-linecap="round"/>
<path d="M53.4064 167.783C55.073 155.616 63.7064 135.983 84.9064 154.783C90.9064 159.616 101.206 171.383 94.4064 179.783C88.1492 187.512 80.001 188.496 75.8832 187.955C87.1415 190.067 104.84 197.852 92.4064 213.783C79.6064 230.183 68.073 230.616 63.9064 228.783C60.4064 228.116 53.4064 223.283 53.4064 209.283C51.4064 221.449 42.1064 240.883 20.9064 221.283C11.4064 211.616 0.206377 191.483 31.4064 188.283C18.7397 187.616 -1.59358 180.483 18.4064 157.283C28.2397 147.949 49.0064 136.983 53.4064 167.783Z" fill="#FD5A2F"/>
<path d="M41.4258 181.089C41.4258 183.409 39.0791 185 34.834 185H30.4746L30.5449 184.657C31.582 184.517 31.7842 184.341 31.9512 183.523L34.0342 173.785C34.21 172.968 34.0781 172.792 33.0937 172.651L33.1641 172.309H37.4004C40.4502 172.309 42.0498 173.46 42.041 175.156C42.0234 177.23 39.8174 178.03 37.8574 178.18C40.1689 178.329 41.4258 179.56 41.4258 181.089ZM39.7295 175.104C39.7295 173.706 38.9297 172.801 37.2861 172.739L36.4863 172.713L35.3437 178.074L36.6182 178.065C38.6221 178.048 39.7295 176.747 39.7295 175.104ZM39.0088 181.062C39.0088 179.604 38.1299 178.522 36.5215 178.496L35.2646 178.47L33.9639 184.596L34.79 184.569C37.7256 184.464 39.0088 182.935 39.0088 181.062ZM45.8902 171.992L43.482 183.321C43.359 183.901 43.5523 184.165 43.9566 184.165C44.2555 184.165 44.6422 184.042 44.8883 183.813L44.8268 184.174C44.4137 184.736 43.5084 185.132 42.6559 185.132C41.6363 185.132 41.1617 184.543 41.4605 183.181L43.5172 173.521C43.6139 173.056 43.526 172.897 43.0865 172.766L42.5768 172.643L42.6471 172.309L45.8902 171.992ZM48.175 185.167C46.048 185.167 44.6418 183.55 44.6418 181.317C44.6418 178.61 46.426 176.255 49.3527 176.255C51.4797 176.255 52.8859 177.863 52.8859 180.096C52.8859 182.803 51.1018 185.167 48.175 185.167ZM48.2014 184.701C49.8889 184.701 50.759 181.651 50.7766 179.27C50.7854 177.556 50.2756 176.712 49.3264 176.712C47.6477 176.712 46.7687 179.762 46.76 182.152C46.7424 183.857 47.2609 184.701 48.2014 184.701ZM56.3133 185.167C54.1863 185.167 52.7801 183.55 52.7801 181.317C52.7801 178.61 54.5643 176.255 57.491 176.255C59.618 176.255 61.0242 177.863 61.0242 180.096C61.0242 182.803 59.24 185.167 56.3133 185.167ZM56.3396 184.701C58.0271 184.701 58.8973 181.651 58.9148 179.27C58.9236 177.556 58.4139 176.712 57.4646 176.712C55.7859 176.712 54.907 179.762 54.8982 182.152C54.8807 183.857 55.3992 184.701 56.3396 184.701ZM62.1752 177.916C62.2807 177.45 62.184 177.283 61.7533 177.16L61.2436 177.037L61.3227 176.703L64.5219 176.316L63.9594 178.953C64.5658 177.178 65.7348 176.255 67.0883 176.255C68.5297 176.255 69.268 177.125 69.0395 178.637C69.0307 178.654 68.9779 178.909 68.9516 178.988C69.5228 177.23 70.7533 176.255 72.0805 176.255C73.5834 176.255 74.3832 177.204 73.9789 179.067L73.0648 183.321C72.9418 183.901 73.1352 184.165 73.5395 184.165C73.8295 184.165 74.2338 184.042 74.4711 183.813L74.4008 184.174C74.0053 184.736 73.0912 185.132 72.2387 185.132C71.2191 185.132 70.7533 184.543 71.0434 183.181L71.975 178.839C72.1859 177.837 71.9311 177.151 71.0961 177.151C70.1205 177.151 69.1889 178.294 68.8285 179.806L67.7211 185H65.6645L66.9916 178.795C67.1937 177.837 66.9477 177.151 66.1039 177.151C65.1371 177.151 64.1967 178.285 63.8363 179.788L62.7113 185H60.6635L62.1752 177.916Z" fill="#221A11"/>
<path d="M41.4258 197.089C41.4258 199.409 39.0791 201 34.834 201H30.4746L30.5449 200.657C31.582 200.517 31.7842 200.341 31.9512 199.523L34.0342 189.785C34.21 188.968 34.0781 188.792 33.0937 188.651L33.1641 188.309H37.4004C40.4502 188.309 42.0498 189.46 42.041 191.156C42.0234 193.23 39.8174 194.03 37.8574 194.18C40.1689 194.329 41.4258 195.56 41.4258 197.089ZM39.7295 191.104C39.7295 189.706 38.9297 188.801 37.2861 188.739L36.4863 188.713L35.3437 194.074L36.6182 194.065C38.6221 194.048 39.7295 192.747 39.7295 191.104ZM39.0088 197.062C39.0088 195.604 38.1299 194.522 36.5215 194.496L35.2646 194.47L33.9639 200.596L34.79 200.569C37.7256 200.464 39.0088 198.935 39.0088 197.062ZM45.8902 187.992L43.482 199.321C43.359 199.901 43.5523 200.165 43.9566 200.165C44.2555 200.165 44.6422 200.042 44.8883 199.813L44.8268 200.174C44.4137 200.736 43.5084 201.132 42.6559 201.132C41.6363 201.132 41.1617 200.543 41.4605 199.181L43.5172 189.521C43.6139 189.056 43.526 188.897 43.0865 188.766L42.5768 188.643L42.6471 188.309L45.8902 187.992ZM48.175 201.167C46.048 201.167 44.6418 199.55 44.6418 197.317C44.6418 194.61 46.426 192.255 49.3527 192.255C51.4797 192.255 52.8859 193.863 52.8859 196.096C52.8859 198.803 51.1018 201.167 48.175 201.167ZM48.2014 200.701C49.8889 200.701 50.759 197.651 50.7766 195.27C50.7854 193.556 50.2756 192.712 49.3264 192.712C47.6477 192.712 46.7687 195.762 46.76 198.152C46.7424 199.857 47.2609 200.701 48.2014 200.701ZM56.3133 201.167C54.1863 201.167 52.7801 199.55 52.7801 197.317C52.7801 194.61 54.5643 192.255 57.491 192.255C59.618 192.255 61.0242 193.863 61.0242 196.096C61.0242 198.803 59.24 201.167 56.3133 201.167ZM56.3396 200.701C58.0271 200.701 58.8973 197.651 58.9148 195.27C58.9236 193.556 58.4139 192.712 57.4646 192.712C55.7859 192.712 54.907 195.762 54.8982 198.152C54.8807 199.857 55.3992 200.701 56.3396 200.701ZM62.1752 193.916C62.2807 193.45 62.184 193.283 61.7533 193.16L61.2436 193.037L61.3227 192.703L64.5219 192.316L63.9594 194.953C64.5658 193.178 65.7348 192.255 67.0883 192.255C68.5297 192.255 69.268 193.125 69.0395 194.637C69.0307 194.654 68.9779 194.909 68.9516 194.988C69.5228 193.23 70.7533 192.255 72.0805 192.255C73.5834 192.255 74.3832 193.204 73.9789 195.067L73.0648 199.321C72.9418 199.901 73.1352 200.165 73.5395 200.165C73.8295 200.165 74.2338 200.042 74.4711 199.813L74.4008 200.174C74.0053 200.736 73.0912 201.132 72.2387 201.132C71.2191 201.132 70.7533 200.543 71.0434 199.181L71.975 194.839C72.1859 193.837 71.9311 193.151 71.0961 193.151C70.1205 193.151 69.1889 194.294 68.8285 195.806L67.7211 201H65.6645L66.9916 194.795C67.1937 193.837 66.9477 193.151 66.1039 193.151C65.1371 193.151 64.1967 194.285 63.8363 195.788L62.7113 201H60.6635L62.1752 193.916Z" fill="#221A11"/>
<path d="M37.7556 56.0273C33.6484 48.1613 30.5589 31.1009 51.0584 25.7872C71.5578 20.4734 74.3965 34.5326 73.2534 42.2264C79.1093 33.4996 94.9026 18.7651 111.229 29.6414C127.556 40.5178 111.594 60.3008 101.573 68.8327C109.764 68.6491 126.649 70.9296 128.662 81.5206C130.676 92.1115 119.805 98.761 114.118 100.762C110.859 102.29 103.026 104.427 97.7664 100.757C96.659 106.619 92.9842 119.503 87.1444 124.142C79.8446 129.941 72.1234 134.02 52.9063 122.321C48.0665 119.374 40.148 109.695 47.1934 94.5515C45.23 100.38 37.2025 109.833 20.7993 101.018C14.345 94.942 4.9106 78.8769 18.807 63.2217C20.8413 61.1433 26.7754 57.1859 34.2378 57.9829C35.8879 58.4294 38.9015 58.6634 37.7556 56.0273Z" stroke="#8BB4E9" stroke-width="8" stroke-linejoin="round"/>
<ellipse cx="68.5" cy="74.5" rx="17.5" ry="14.5" fill="#2CC390"/>
<path d="M66.1399 238.841C49.1753 242.993 46.9452 255.846 47.9507 261.753C41.2573 262.815 34.0302 265.563 31.2533 266.805C17.4624 275.759 21.6193 283.757 25.4216 286.637C32.6786 289.289 33.566 293.915 33.1026 295.896C28.9423 300.417 26.1007 306.698 25.2 309.274C16.1479 329.606 38.9812 332.001 51.5294 330.657C54.0864 331.971 60.3277 333.013 63.1287 333.369C64.4482 334.872 71.5358 337.823 74.9147 339.111C81.7191 341.658 90.6392 341.197 94.2488 340.648C105.387 338.954 109.868 329.573 110.717 325.094C112.176 320.898 115.036 320.233 116.284 320.426C130.177 318.182 133.605 308.455 133.583 303.872C132.88 294.632 126.941 287.193 124.06 284.629C121.955 283.42 121.606 282.363 121.694 281.986C121.174 281.147 120.731 278.874 120.574 277.843C121.966 272.914 121.455 267.699 121.025 265.708C120.23 257.88 114.594 253.656 111.875 252.522C106.987 249.946 98.5825 252.797 94.9911 254.544C93.9269 255.012 93.3598 253.864 93.2093 253.232C93.0014 235.749 75.0764 236.353 66.1399 238.841Z" fill="#EFEEFF"/>
<path d="M73.6773 283.688C75.7371 278.882 74.8217 275.106 73.6773 273.39C73.6773 272.817 72.1323 271.157 69.3859 272.531C65.9528 274.247 65.0945 276.822 64.2362 279.397C63.5496 281.457 64.5223 284.26 65.0945 285.405C67.0971 286.835 71.6174 288.495 73.6773 283.688Z" fill="white"/>
<path d="M89.1263 288.511C91.1861 283.705 90.2706 279.929 89.1263 278.212C89.1262 277.64 87.5813 275.98 84.8348 277.353C81.4017 279.07 80.5435 281.645 79.6852 284.22C78.9986 286.279 79.9713 289.083 80.5435 290.228C82.5461 291.658 87.0664 293.317 89.1263 288.511Z" fill="white"/>
<path d="M75.4805 280.129C76.7777 277.358 76.2012 275.181 75.4805 274.191C75.4805 273.861 74.5075 272.904 72.7778 273.696C70.6157 274.685 70.0751 276.17 69.5346 277.655C69.1022 278.842 69.7148 280.459 70.0751 281.119C71.3364 281.944 74.1832 282.9 75.4805 280.129Z" fill="#362F29"/>
<path d="M90.9294 284.952C92.2267 282.18 91.6502 280.003 90.9294 279.014C90.9294 278.684 89.9565 277.727 88.2268 278.518C86.0646 279.508 85.5241 280.993 84.9836 282.477C84.5511 283.665 85.1638 285.282 85.5241 285.941C86.7854 286.766 89.6322 287.723 90.9294 284.952Z" fill="#362F29"/>
<path d="M172.052 32.8361L172.065 51.8907L167.022 51.215L172.052 32.8361Z" fill="#221A11"/>
<path d="M171.606 36.1635L176.635 17.7847L171.592 17.109L171.606 36.1635Z" fill="#221A11"/>
<path d="M171.842 34.2377L188.394 24.7981L185.306 20.7545L171.842 34.2377Z" fill="#221A11"/>
<path d="M171.866 34.0604L185.35 47.5243L181.306 50.6124L171.866 34.0604Z" fill="#221A11"/>
<path d="M172.019 34.2614L158.536 20.7974L162.58 17.7094L172.019 34.2614Z" fill="#221A11"/>
<path d="M172.043 34.0839L155.491 43.5235L158.579 47.5671L172.043 34.0839Z" fill="#221A11"/>
<path d="M170.637 33.9169L189.015 38.9461L189.691 33.9033L170.637 33.9169Z" fill="#221A11"/>
<path d="M173.132 34.2511L154.078 34.2647L154.753 29.2219L173.132 34.2511Z" fill="#221A11"/>
</svg>
