<svg width="265" height="362" viewBox="0 0 265 362" fill="none" xmlns="http://www.w3.org/2000/svg">
<path d="M160.79 86.8187C157.644 76.5573 154.017 56.0344 164.676 56.0344C175.335 56.0344 179.48 69.0944 180.22 75.6244V94.6547C184.661 81.2215 196.097 55.3628 206.312 59.3927C216.527 63.4226 205.387 84.5798 198.54 94.6547C207.608 86.4455 227.408 70.587 234.07 72.8258C240.732 75.0647 234.995 83.4604 231.294 87.3784C229.178 89.912 225.436 94.1994 223.149 96.2758C227.946 94.2055 240.739 90.4907 248.504 93.5352C256.498 96.6696 254.426 104.17 252.39 107.528C250.725 109.953 246.061 115.252 240.732 117.043C235.402 118.834 225.558 120.775 221.301 121.521C234.81 120.588 262.383 120.401 264.603 127.118C266.824 133.835 258.867 136.633 254.611 137.193C246.283 138.312 227.741 140.327 220.191 139.432C231.664 143.909 254.166 155.775 252.39 167.417C252.02 169.283 248.726 172.455 238.511 170.216C225.743 167.417 217.97 160.701 216.305 159.581C214.64 158.462 241.842 190.366 240.732 198.761C239.621 207.157 232.404 205.478 230.184 203.239C228.407 201.448 219.821 189.06 215.75 183.089C219.636 189.993 226.853 205.03 224.632 209.956C222.412 214.881 215.935 213.5 212.974 212.194C210.383 210.888 204.647 206.597 202.426 199.881L192.989 182.53C194.284 192.045 195.32 211.859 189.103 214.993C187.622 216.299 184.106 217.568 181.886 212.194C179.135 205.54 174.751 185.7 175.21 180.435C174.077 191.861 169.748 214.32 161.345 213.874C160.05 214.433 157.237 213.986 156.349 207.717C155.46 201.448 156.719 182.343 157.459 173.574C153.573 185.888 143.247 211.187 133.032 213.874C131.737 214.06 129.368 213.09 130.256 207.717C131.145 202.344 137.288 184.209 140.249 175.813C134.512 185.328 120.264 204.135 109.16 203.239C107.125 203.053 104.941 199.545 112.491 187.007C120.041 174.47 128.961 165.738 132.477 162.94C122.669 169.283 101.721 181.522 96.392 179.731C91.0626 177.94 96.7621 170.776 100.278 167.417L125.815 147.268C117.673 149.133 100.611 151.969 97.5023 148.387C94.3935 144.805 105.46 137.566 111.381 134.394L124.15 128.797C117.673 129.17 103.831 128.573 100.278 123.2C96.7251 117.827 109.531 114.245 116.378 113.125C120.079 112.565 127.925 111.558 129.701 112.006C121.559 108.834 106.718 101.147 112.491 95.7741C113.602 94.0949 117.155 90.5128 122.484 89.6172C127.814 88.7217 136.548 92.9755 140.249 95.2144C136.178 87.7515 129.257 71.4825 134.142 66.1093C139.028 60.736 153.943 77.6767 160.79 86.8187Z" fill="#FB5500"/>
<path d="M176.276 123.414C174.444 119.14 175.258 115.781 176.276 114.255C176.276 113.746 177.65 112.269 180.093 113.491C183.146 115.017 183.91 117.307 184.673 119.598C185.284 121.43 184.419 123.923 183.91 124.941C182.128 126.214 178.108 127.689 176.276 123.414Z" fill="white"/>
<path d="M162.535 127.704C160.703 123.429 161.517 120.071 162.535 118.544C162.535 118.035 163.909 116.559 166.352 117.78C169.405 119.307 170.169 121.597 170.932 123.887C171.543 125.719 170.678 128.213 170.169 129.231C168.388 130.503 164.367 131.979 162.535 127.704Z" fill="white"/>
<path d="M174.672 120.249C173.518 117.784 174.031 115.848 174.672 114.967C174.672 114.674 175.537 113.823 177.076 114.527C178.999 115.407 179.479 116.728 179.96 118.048C180.345 119.104 179.8 120.542 179.479 121.129C178.358 121.863 175.826 122.714 174.672 120.249Z" fill="#362F29"/>
<path d="M160.931 124.538C159.777 122.073 160.29 120.137 160.931 119.257C160.931 118.963 161.796 118.112 163.335 118.816C165.258 119.697 165.739 121.017 166.22 122.338C166.604 123.394 166.059 124.832 165.739 125.419C164.617 126.152 162.085 127.003 160.931 124.538Z" fill="#362F29"/>
<path d="M144.586 225.221C121.843 237.502 129.078 261.069 135.538 271.317C120.642 281.198 115.435 288.224 114.694 290.502C104.421 325.845 135.453 332.067 152.253 330.759C164.619 360.071 174.164 355.956 193.567 352.283C209.089 349.345 216.193 335.718 216.198 327.113C228.624 330.145 235.61 322.598 239.955 318.569C257.948 302.718 245.586 283.229 236.143 273.747C244.427 267.215 254.131 246.352 234.785 228.908C215.438 211.465 190.739 221.426 180.808 228.586C170.507 216.364 152.368 221.25 144.586 225.221Z" fill="#D6E3FF"/>
<path d="M167.345 275.031C168.17 275.844 168.942 276.821 170.076 277.209C171.16 277.579 172.328 277.601 173.38 277.441C175.285 277.153 176.367 275.718 177.534 274.364" stroke="#424242" stroke-width="3.5" stroke-linecap="round"/>
<path d="M184.26 272.141C185.351 273.081 186.726 274.364 188.226 274.18C188.928 274.094 189.653 274.312 190.395 274.173C193.016 273.679 194.759 271.475 195.692 269.167" stroke="#424242" stroke-width="3.5" stroke-linecap="round"/>
<path d="M161.173 285.918C169.837 291.128 190.096 297.089 201.823 279.257" stroke="#424242" stroke-width="3.5" stroke-linecap="round"/>
<path d="M220.646 5.51532C229.342 10.2109 226.576 19.2218 224.105 23.1404C229.801 26.9183 231.792 29.6048 232.075 30.4758C236.003 43.9894 224.138 46.3681 217.714 45.8683C212.986 57.0755 209.336 55.5024 201.918 54.0979C195.983 52.9744 193.267 47.7641 193.265 44.4741C188.514 45.6334 185.843 42.7479 184.181 41.2073C177.302 35.1465 182.028 27.695 185.639 24.0693C182.471 21.5719 178.761 13.5948 186.158 6.92526C193.555 0.255749 202.999 4.06424 206.796 6.80218C210.735 2.12904 217.67 3.99713 220.646 5.51532Z" fill="#3CCA9A"/>
<path d="M211.944 24.5606C211.629 24.8715 211.333 25.2449 210.9 25.3932C210.485 25.5349 210.039 25.5431 209.636 25.4822C208.908 25.3721 208.495 24.8234 208.048 24.3055" stroke="#424242" stroke-width="2" stroke-linecap="round"/>
<path d="M205.477 23.4555C205.059 23.815 204.534 24.3055 203.96 24.2351C203.691 24.202 203.414 24.2857 203.131 24.2323C202.128 24.0436 201.462 23.2007 201.105 22.3183" stroke="#424242" stroke-width="2" stroke-linecap="round"/>
<path d="M214.304 28.7231C210.991 30.7151 203.245 32.9944 198.761 26.1761" stroke="#424242" stroke-width="2" stroke-linecap="round"/>
<path d="M132.572 22.6073C126.884 25.6785 128.693 31.5722 130.309 34.1352C126.584 36.6061 125.282 38.3633 125.096 38.9329C122.527 47.7717 130.288 49.3275 134.489 49.0005C137.582 56.3307 139.969 55.3018 144.821 54.3832C148.703 53.6484 150.479 50.2405 150.481 48.0887C153.588 48.8469 155.335 46.9596 156.422 45.952C160.921 41.9879 157.83 37.1141 155.468 34.7427C157.54 33.1093 159.967 27.8918 155.129 23.5295C150.29 19.1673 144.114 21.6583 141.63 23.449C139.054 20.3925 134.518 21.6144 132.572 22.6073Z" fill="#EFEEFF"/>
<path d="M47.9704 149.232C49.4528 138.41 57.1316 120.948 75.9876 137.669C81.3242 141.968 90.4854 152.434 84.4373 159.905C78.8719 166.78 71.6246 167.655 67.9621 167.173C77.9756 169.052 93.7175 175.976 82.6584 190.146C71.2736 204.732 61.0155 205.118 57.3095 203.487C54.1965 202.894 47.9704 198.595 47.9704 186.143C46.1916 196.965 37.9198 214.249 19.0638 196.816C10.6142 188.219 0.652491 170.311 28.4029 167.465C17.1367 166.872 -0.94845 160.528 16.8402 139.893C25.5863 131.591 44.0569 121.837 47.9704 149.232Z" fill="#FD5A2F"/>
<path d="M37.1562 161.523C37.1562 163.586 35.0703 165 31.2969 165H27.4219L27.4844 164.695C28.4062 164.57 28.5859 164.414 28.7344 163.687L30.5859 155.031C30.7422 154.305 30.625 154.148 29.75 154.023L29.8125 153.719H33.5781C36.2891 153.719 37.7109 154.742 37.7031 156.25C37.6875 158.094 35.7266 158.805 33.9844 158.937C36.0391 159.07 37.1562 160.164 37.1562 161.523ZM35.6484 156.203C35.6484 154.961 34.9375 154.156 33.4766 154.102L32.7656 154.078L31.75 158.844L32.8828 158.836C34.6641 158.82 35.6484 157.664 35.6484 156.203ZM35.0078 161.5C35.0078 160.203 34.2266 159.242 32.7969 159.219L31.6797 159.195L30.5234 164.641L31.2578 164.617C33.8672 164.523 35.0078 163.164 35.0078 161.5ZM41.5469 153.437L39.4062 163.508C39.2969 164.023 39.4687 164.258 39.8281 164.258C40.0937 164.258 40.4375 164.148 40.6562 163.945L40.6016 164.266C40.2344 164.766 39.4297 165.117 38.6719 165.117C37.7656 165.117 37.3437 164.594 37.6094 163.383L39.4375 154.797C39.5234 154.383 39.4453 154.242 39.0547 154.125L38.6016 154.016L38.6641 153.719L41.5469 153.437ZM44 165.148C42.1094 165.148 40.8594 163.711 40.8594 161.727C40.8594 159.32 42.4453 157.227 45.0469 157.227C46.9375 157.227 48.1875 158.656 48.1875 160.641C48.1875 163.047 46.6016 165.148 44 165.148ZM44.0234 164.734C45.5234 164.734 46.2969 162.023 46.3125 159.906C46.3203 158.383 45.8672 157.633 45.0234 157.633C43.5312 157.633 42.75 160.344 42.7422 162.469C42.7266 163.984 43.1875 164.734 44.0234 164.734ZM51.6562 165.148C49.7656 165.148 48.5156 163.711 48.5156 161.727C48.5156 159.32 50.1016 157.227 52.7031 157.227C54.5937 157.227 55.8437 158.656 55.8437 160.641C55.8437 163.047 54.2578 165.148 51.6562 165.148ZM51.6797 164.734C53.1797 164.734 53.9531 162.023 53.9687 159.906C53.9766 158.383 53.5234 157.633 52.6797 157.633C51.1875 157.633 50.4062 160.344 50.3984 162.469C50.3828 163.984 50.8437 164.734 51.6797 164.734ZM57.2891 158.703C57.3828 158.289 57.2969 158.141 56.9141 158.031L56.4609 157.922L56.5312 157.625L59.375 157.281L58.875 159.625C59.4141 158.047 60.4531 157.227 61.6562 157.227C62.9375 157.227 63.5937 158 63.3906 159.344C63.3828 159.359 63.3359 159.586 63.3125 159.656C63.8203 158.094 64.9141 157.227 66.0937 157.227C67.4297 157.227 68.1406 158.07 67.7812 159.727L66.9687 163.508C66.8594 164.023 67.0312 164.258 67.3906 164.258C67.6484 164.258 68.0078 164.148 68.2187 163.945L68.1562 164.266C67.8047 164.766 66.9922 165.117 66.2344 165.117C65.3281 165.117 64.9141 164.594 65.1719 163.383L66 159.523C66.1875 158.633 65.9609 158.023 65.2187 158.023C64.3516 158.023 63.5234 159.039 63.2031 160.383L62.2187 165H60.3906L61.5703 159.484C61.75 158.633 61.5312 158.023 60.7812 158.023C59.9219 158.023 59.0859 159.031 58.7656 160.367L57.7656 165H55.9453L57.2891 158.703Z" fill="#221A11"/>
<path d="M37.1562 175.755C37.1562 177.817 35.0703 179.231 31.2969 179.231H27.4219L27.4844 178.927C28.4062 178.802 28.5859 178.645 28.7344 177.919L30.5859 169.262C30.7422 168.536 30.625 168.38 29.75 168.255L29.8125 167.95H33.5781C36.2891 167.95 37.7109 168.973 37.7031 170.481C37.6875 172.325 35.7266 173.036 33.9844 173.169C36.0391 173.302 37.1562 174.395 37.1562 175.755ZM35.6484 170.434C35.6484 169.192 34.9375 168.387 33.4766 168.333L32.7656 168.309L31.75 173.075L32.8828 173.067C34.6641 173.052 35.6484 171.895 35.6484 170.434ZM35.0078 175.731C35.0078 174.434 34.2266 173.473 32.7969 173.45L31.6797 173.427L30.5234 178.872L31.2578 178.848C33.8672 178.755 35.0078 177.395 35.0078 175.731ZM41.5469 167.669L39.4062 177.739C39.2969 178.255 39.4687 178.489 39.8281 178.489C40.0937 178.489 40.4375 178.38 40.6562 178.177L40.6016 178.497C40.2344 178.997 39.4297 179.348 38.6719 179.348C37.7656 179.348 37.3437 178.825 37.6094 177.614L39.4375 169.028C39.5234 168.614 39.4453 168.473 39.0547 168.356L38.6016 168.247L38.6641 167.95L41.5469 167.669ZM44 179.38C42.1094 179.38 40.8594 177.942 40.8594 175.958C40.8594 173.552 42.4453 171.458 45.0469 171.458C46.9375 171.458 48.1875 172.887 48.1875 174.872C48.1875 177.278 46.6016 179.38 44 179.38ZM44.0234 178.966C45.5234 178.966 46.2969 176.255 46.3125 174.137C46.3203 172.614 45.8672 171.864 45.0234 171.864C43.5312 171.864 42.75 174.575 42.7422 176.7C42.7266 178.216 43.1875 178.966 44.0234 178.966ZM51.6562 179.38C49.7656 179.38 48.5156 177.942 48.5156 175.958C48.5156 173.552 50.1016 171.458 52.7031 171.458C54.5937 171.458 55.8437 172.887 55.8437 174.872C55.8437 177.278 54.2578 179.38 51.6562 179.38ZM51.6797 178.966C53.1797 178.966 53.9531 176.255 53.9687 174.137C53.9766 172.614 53.5234 171.864 52.6797 171.864C51.1875 171.864 50.4062 174.575 50.3984 176.7C50.3828 178.216 50.8437 178.966 51.6797 178.966ZM57.2891 172.934C57.3828 172.52 57.2969 172.372 56.9141 172.262L56.4609 172.153L56.5312 171.856L59.375 171.512L58.875 173.856C59.4141 172.278 60.4531 171.458 61.6562 171.458C62.9375 171.458 63.5937 172.231 63.3906 173.575C63.3828 173.591 63.3359 173.817 63.3125 173.887C63.8203 172.325 64.9141 171.458 66.0937 171.458C67.4297 171.458 68.1406 172.302 67.7812 173.958L66.9687 177.739C66.8594 178.255 67.0312 178.489 67.3906 178.489C67.6484 178.489 68.0078 178.38 68.2187 178.177L68.1562 178.497C67.8047 178.997 66.9922 179.348 66.2344 179.348C65.3281 179.348 64.9141 178.825 65.1719 177.614L66 173.755C66.1875 172.864 65.9609 172.255 65.2187 172.255C64.3516 172.255 63.5234 173.27 63.2031 174.614L62.2187 179.231H60.3906L61.5703 173.716C61.75 172.864 61.5312 172.255 60.7812 172.255C59.9219 172.255 59.0859 173.262 58.7656 174.598L57.7656 179.231H55.9453L57.2891 172.934Z" fill="#221A11"/>
<path d="M34.0503 49.8327C30.3972 42.8365 27.6494 27.6623 45.8823 22.9361C64.1152 18.2099 66.64 30.7146 65.6233 37.5577C70.8317 29.7958 84.8789 16.6904 99.4003 26.3642C113.922 36.0381 99.725 53.6337 90.8115 61.2224C98.0969 61.0591 113.115 63.0874 114.906 72.5074C116.697 81.9273 107.028 87.8416 101.97 89.6212C99.0711 90.98 92.1039 92.8814 87.426 89.617C86.441 94.8309 83.1726 106.29 77.9784 110.416C71.4857 115.574 64.6183 119.202 47.5259 108.796C43.2212 106.176 36.1782 97.5668 42.4446 84.0976C40.6983 89.2817 33.5583 97.6898 18.9688 89.8487C13.2281 84.4449 4.83684 70.156 17.1967 56.2317C19.0061 54.3831 24.2842 50.8632 30.9214 51.5722C32.3891 51.9693 35.0696 52.1774 34.0503 49.8327Z" stroke="#8BB4E9" stroke-width="8" stroke-linejoin="round"/>
<ellipse cx="61.3954" cy="66.263" rx="15.5651" ry="12.8968" fill="#2CC390"/>
<path d="M59.2962 212.433C44.2073 216.127 42.2238 227.558 43.1181 232.813C37.1648 233.757 30.7367 236.201 28.2669 237.305C16.0007 245.27 19.698 252.383 23.0799 254.945C29.5345 257.304 30.3239 261.418 29.9117 263.181C26.2114 267.201 23.684 272.788 22.8828 275.079C14.8316 293.163 35.1403 295.293 46.3011 294.097C48.5754 295.267 54.1266 296.193 56.6179 296.51C57.7915 297.847 64.0955 300.472 67.1008 301.617C73.1529 303.882 81.0868 303.472 84.2972 302.984C94.2038 301.477 98.1898 293.133 98.9445 289.15C100.242 285.417 102.787 284.827 103.897 284.998C116.253 283.002 119.302 274.351 119.283 270.275C118.657 262.056 113.375 255.439 110.812 253.158C108.94 252.083 108.629 251.143 108.708 250.808C108.245 250.062 107.851 248.04 107.712 247.123C108.95 242.739 108.495 238.101 108.113 236.33C107.406 229.367 102.393 225.61 99.9747 224.602C95.6274 222.311 88.1518 224.846 84.9575 226.401C84.011 226.816 83.5066 225.796 83.3727 225.233C83.1878 209.683 67.2447 210.221 59.2962 212.433Z" fill="#EFEEFF"/>
<path d="M66.0001 252.322C67.8322 248.047 67.018 244.689 66.0001 243.162C66.0001 242.653 64.626 241.177 62.1832 242.398C59.1297 243.925 58.3663 246.215 57.6029 248.505C56.9922 250.337 57.8574 252.831 58.3663 253.849C60.1475 255.121 64.168 256.597 66.0001 252.322Z" fill="white"/>
<path d="M79.741 256.612C81.5731 252.337 80.7588 248.979 79.741 247.452C79.741 246.943 78.3668 245.466 75.924 246.688C72.8705 248.215 72.1071 250.505 71.3437 252.795C70.733 254.627 71.5982 257.121 72.1071 258.138C73.8884 259.411 77.9089 260.887 79.741 256.612Z" fill="white"/>
<path d="M67.6044 249.157C68.7582 246.692 68.2454 244.755 67.6044 243.875C67.6044 243.582 66.7389 242.73 65.2005 243.434C63.2774 244.315 62.7967 245.635 62.3159 246.956C61.9313 248.012 62.4761 249.45 62.7967 250.037C63.9185 250.77 66.4505 251.621 67.6044 249.157Z" fill="#362F29"/>
<path d="M81.3451 253.446C82.4989 250.981 81.9861 249.045 81.3451 248.164C81.3451 247.871 80.4797 247.02 78.9412 247.724C77.0181 248.604 76.5374 249.925 76.0566 251.245C75.672 252.301 76.2169 253.739 76.5374 254.326C77.6592 255.06 80.1912 255.911 81.3451 253.446Z" fill="#362F29"/>
</svg>
