<svg width="94" height="123" viewBox="0 0 94 123" fill="none" xmlns="http://www.w3.org/2000/svg">
<path d="M28.6145 66.5128C27.2624 62.1023 25.7034 53.2812 30.2848 53.2812C34.8662 53.2812 36.6478 58.8946 36.966 61.7013V69.8808C38.8749 64.107 43.7903 52.9926 48.1808 54.7247C52.5713 56.4568 47.7831 65.5505 44.8402 69.8808C48.7376 66.3524 57.2481 59.5361 60.1114 60.4984C62.9748 61.4607 60.5091 65.0693 58.9184 66.7533C58.0088 67.8423 56.4003 69.6851 55.4173 70.5776C57.4793 69.6877 62.9779 68.0911 66.3154 69.3996C69.7514 70.7469 68.8606 73.9705 67.9856 75.414C67.2698 76.4565 65.2655 78.7339 62.9748 79.5037C60.6841 80.2735 56.4527 81.1075 54.6233 81.4283C60.4296 81.0273 72.2807 80.9471 73.2351 83.834C74.1896 86.7209 70.7695 87.9238 68.9401 88.1643C65.3609 88.6455 57.3912 89.5115 54.1461 89.1266C59.0774 91.0512 68.7492 96.1514 67.9856 101.155C67.8266 101.957 66.4108 103.32 62.0203 102.358C56.5322 101.155 53.1917 98.2684 52.4758 97.7873C51.76 97.3061 63.452 111.019 62.9748 114.627C62.4976 118.236 59.3956 117.514 58.4411 116.552C57.6776 115.782 53.987 110.457 52.2372 107.891C53.9075 110.858 57.0095 117.322 56.055 119.439C55.1006 121.556 52.3167 120.962 51.0441 120.401C49.9306 119.84 47.465 117.995 46.5105 115.109L42.4541 107.651C43.0108 111.74 43.4563 120.257 40.7838 121.604C40.1475 122.165 38.6363 122.711 37.6818 120.401C36.4998 117.541 34.6152 109.014 34.8124 106.75C34.3256 111.662 32.4649 121.314 28.8532 121.123C28.2964 121.363 27.0874 121.171 26.7056 118.477C26.3239 115.782 26.8647 107.571 27.1829 103.802C25.5126 109.094 21.0744 119.968 16.6839 121.123C16.1271 121.203 15.1091 120.786 15.4908 118.477C15.8726 116.167 18.5133 108.372 19.7859 104.764C17.3202 108.854 11.1958 116.937 6.42354 116.552C5.54863 116.472 4.61009 114.964 7.85522 109.575C11.1004 104.187 14.9341 100.434 16.4453 99.2307C12.2298 101.957 3.22615 107.218 0.935472 106.448C-1.35521 105.678 1.09455 102.599 2.60576 101.155L13.5819 92.4947C10.0823 93.2966 2.74892 94.5155 1.41269 92.9758C0.076454 91.4361 4.8328 88.3247 7.37801 86.9615L12.8661 84.5557C10.0823 84.7161 4.13287 84.4595 2.60575 82.15C1.07863 79.8405 6.58263 78.3008 9.52552 77.8197C11.1163 77.5791 14.4887 77.1461 15.2522 77.3386C11.7526 75.9753 5.37366 72.6714 7.85523 70.3619C8.33246 69.6402 9.85958 68.1005 12.1503 67.7156C14.4409 67.3307 18.1951 69.1591 19.7859 70.1214C18.036 66.9137 15.0613 59.9211 17.1611 57.6116C19.2609 55.3021 25.6716 62.5834 28.6145 66.5128Z" fill="#AEC9FF"/>
<path d="M37.6507 85.0789C36.4935 82.3787 37.0078 80.2575 37.6507 79.2932C37.6507 78.9717 38.5187 78.0391 40.0617 78.8106C41.9904 79.7749 42.4726 81.2215 42.9548 82.668C43.3405 83.8253 42.794 85.4004 42.4726 86.0433C41.3475 86.847 38.808 87.7792 37.6507 85.0789Z" fill="white"/>
<path d="M28.9713 87.7884C27.814 85.0882 28.3284 82.967 28.9713 82.0026C28.9713 81.6812 29.8392 80.7485 31.3822 81.52C33.311 82.4844 33.7931 83.9309 34.2753 85.3775C34.6611 86.5347 34.1146 88.1099 33.7931 88.7528C32.668 89.5564 30.1285 90.4886 28.9713 87.7884Z" fill="white"/>
<path d="M36.6378 83.0792C35.909 81.5222 36.2329 80.2992 36.6378 79.7431C36.6378 79.5578 37.1845 79.02 38.1562 79.4649C39.3709 80.0209 39.6746 80.855 39.9783 81.689C40.2212 82.3563 39.877 83.2645 39.6746 83.6352C38.966 84.0986 37.3667 84.6361 36.6378 83.0792Z" fill="#362F29"/>
<path d="M27.9584 85.7889C27.2296 84.2319 27.5535 83.0089 27.9584 82.4528C27.9584 82.2675 28.505 81.7297 29.4768 82.1746C30.6915 82.7306 30.9951 83.5647 31.2988 84.3988C31.5418 85.066 31.1976 85.9742 30.9951 86.3449C30.2866 86.8083 28.6872 87.3458 27.9584 85.7889Z" fill="#362F29"/>
<g filter="url(#filter0_d_562_3304)">
<path d="M64.8742 46.4265C64.4932 47.1123 63.5068 47.1123 63.1258 46.4265L59.8254 40.4856C59.4551 39.8191 59.937 39 60.6995 39L67.3005 39C68.063 39 68.5449 39.8191 68.1746 40.4856L64.8742 46.4265Z" fill="#7990F6"/>
<rect x="18" y="12" width="60" height="29" rx="4" fill="#7990F6"/>
<path d="M36.6094 25.2812C36.4043 24.1855 35.4961 23.5762 34.418 23.582C32.9531 23.5762 31.8691 24.7012 31.8633 26.7578C31.8691 28.8262 32.959 29.9395 34.418 29.9336C35.4844 29.9395 36.3867 29.3418 36.6094 28.2578L37.9102 28.2695C37.6406 29.9453 36.2754 31.1172 34.4062 31.1172C32.1973 31.1172 30.5859 29.4707 30.5859 26.7578C30.5859 24.0449 32.209 22.3984 34.4062 22.3984C36.1992 22.3984 37.623 23.459 37.9102 25.2812H36.6094ZM39.9531 27.2266V31H38.6992V22.5156H39.9297V25.6797H40.0117C40.3105 24.9883 40.9082 24.5547 41.8984 24.5547C43.2051 24.5547 44.0781 25.3633 44.0781 26.957V31H42.8242V27.1094C42.8242 26.1719 42.3203 25.6328 41.4766 25.6328C40.5918 25.6328 39.9531 26.2129 39.9531 27.2266ZM47.832 31.1289C45.957 31.1289 44.8027 29.834 44.8086 27.8594C44.8027 25.9023 45.9746 24.5547 47.75 24.5547C49.1973 24.5547 50.5742 25.4512 50.5742 27.7539V28.1992H46.0508C46.0859 29.4121 46.8008 30.0977 47.8438 30.0977C48.5527 30.0977 49.0156 29.793 49.2266 29.4062H50.4922C50.2109 30.4375 49.2324 31.1289 47.832 31.1289ZM46.0566 27.2617H49.3438C49.3438 26.2949 48.7168 25.5801 47.7617 25.5859C46.7598 25.5801 46.1094 26.3652 46.0566 27.2617ZM54.0117 31.1289C52.1543 31.1289 51.0293 29.7637 51.0352 27.8477C51.0293 25.9082 52.1953 24.5547 53.9883 24.5547C55.4414 24.5547 56.4902 25.4102 56.625 26.6992H55.4062C55.2773 26.1016 54.8027 25.6035 54.0117 25.5977C52.9805 25.6035 52.2891 26.459 52.2891 27.8125C52.2891 29.207 52.9629 30.0684 54.0117 30.0625C54.7207 30.0684 55.248 29.6699 55.4062 28.9844H56.625C56.4902 30.2207 55.5117 31.1289 54.0117 31.1289ZM57.3086 31V22.5156H58.5625V27.3203H58.668L61.1875 24.6367H62.6875L60.1152 27.3672L62.8633 31H61.3281L59.166 28.1406L58.5625 28.7383V31H57.3086ZM64.7305 22.5156L64.625 28.5508H63.4648L63.3594 22.5156H64.7305ZM63.2188 30.25C63.2129 29.793 63.5938 29.418 64.0508 29.418C64.502 29.418 64.877 29.793 64.8828 30.25C64.877 30.707 64.502 31.0762 64.0508 31.082C63.5938 31.0762 63.2129 30.707 63.2188 30.25Z" fill="white"/>
</g>
<defs>
<filter id="filter0_d_562_3304" x="2" y="0" width="92" height="66.9409" filterUnits="userSpaceOnUse" color-interpolation-filters="sRGB">
<feFlood flood-opacity="0" result="BackgroundImageFix"/>
<feColorMatrix in="SourceAlpha" type="matrix" values="0 0 0 0 0 0 0 0 0 0 0 0 0 0 0 0 0 0 127 0" result="hardAlpha"/>
<feOffset dy="4"/>
<feGaussianBlur stdDeviation="8"/>
<feComposite in2="hardAlpha" operator="out"/>
<feColorMatrix type="matrix" values="0 0 0 0 0.392542 0 0 0 0 0.47367 0 0 0 0 0.833455 0 0 0 0.25 0"/>
<feBlend mode="normal" in2="BackgroundImageFix" result="effect1_dropShadow_562_3304"/>
<feBlend mode="normal" in="SourceGraphic" in2="effect1_dropShadow_562_3304" result="shape"/>
</filter>
</defs>
</svg>
