<svg width="90" height="70" viewBox="0 0 90 70" fill="none" xmlns="http://www.w3.org/2000/svg">
<path d="M28.6145 13.5128C27.2624 9.10226 25.7034 0.28125 30.2848 0.28125C34.8662 0.28125 36.6478 5.89462 36.966 8.70131V16.8808C38.8749 11.107 43.7903 -0.00743759 48.1808 1.72469C52.5713 3.45681 47.7831 12.5505 44.8402 16.8808C48.7376 13.3524 57.2481 6.53615 60.1114 7.49844C62.9748 8.46073 60.5091 12.0693 58.9184 13.7533C58.0088 14.8423 56.4003 16.6851 55.4173 17.5776C57.4793 16.6877 62.9779 15.0911 66.3154 16.3996C69.7514 17.7469 68.8606 20.9705 67.9856 22.414C67.2698 23.4565 65.2655 25.7339 62.9748 26.5037C60.6841 27.2735 56.4527 28.1075 54.6233 28.4283C60.4296 28.0273 72.2807 27.9471 73.2351 30.834C74.1896 33.7209 70.7695 34.9238 68.9401 35.1643C65.3609 35.6455 57.3912 36.5115 54.1461 36.1266C59.0774 38.0512 68.7492 43.1514 67.9856 48.1553C67.8266 48.9572 66.4108 50.3204 62.0203 49.3581C56.5322 48.1553 53.1917 45.2684 52.4758 44.7873C51.76 44.3061 63.452 58.0188 62.9748 61.6274C62.4976 65.236 59.3956 64.5142 58.4411 63.552C57.6776 62.7821 53.987 57.4574 52.2372 54.8913C53.9075 57.8584 57.0095 64.3218 56.055 66.4388C55.1006 68.5559 52.3167 67.9625 51.0441 67.4011C49.9306 66.8398 47.465 64.9954 46.5105 62.1085L42.4541 54.6508C43.0108 58.7405 43.4563 67.2568 40.7838 68.604C40.1475 69.1653 38.6363 69.7106 37.6818 67.4011C36.4998 64.541 34.6152 56.0136 34.8124 53.7503C34.3256 58.6616 32.4649 68.3145 28.8532 68.1228C28.2964 68.3634 27.0874 68.171 26.7056 65.4765C26.3239 62.7821 26.8647 54.5706 27.1829 50.8016C25.5126 56.0942 21.0744 66.9681 16.6839 68.1228C16.1271 68.203 15.1091 67.786 15.4908 65.4765C15.8726 63.167 18.5133 55.3725 19.7859 51.7639C17.3202 55.8536 11.1958 63.9369 6.42354 63.552C5.54863 63.4718 4.61009 61.9642 7.85522 56.5753C11.1004 51.1865 14.9341 47.4336 16.4453 46.2307C12.2298 48.9572 3.22615 54.2177 0.935472 53.4479C-1.35521 52.6781 1.09455 49.5987 2.60576 48.1553L13.5819 39.4947C10.0823 40.2966 2.74892 41.5155 1.41269 39.9758C0.076454 38.4361 4.8328 35.3247 7.37801 33.9615L12.8661 31.5557C10.0823 31.7161 4.13287 31.4595 2.60575 29.15C1.07863 26.8405 6.58263 25.3008 9.52552 24.8197C11.1163 24.5791 14.4887 24.1461 15.2522 24.3386C11.7526 22.9753 5.37366 19.6714 7.85523 17.3619C8.33246 16.6402 9.85958 15.1005 12.1503 14.7156C14.4409 14.3307 18.1951 16.1591 19.7859 17.1214C18.036 13.9137 15.0613 6.92107 17.1611 4.61156C19.2609 2.30206 25.6716 9.58341 28.6145 13.5128Z" fill="#AEC9FF"/>
<path d="M37.6507 32.0789C36.4935 29.3787 37.0078 27.2575 37.6507 26.2932C37.6507 25.9717 38.5187 25.0391 40.0617 25.8106C41.9904 26.7749 42.4726 28.2215 42.9548 29.668C43.3405 30.8253 42.794 32.4004 42.4726 33.0433C41.3475 33.847 38.808 34.7792 37.6507 32.0789Z" fill="white"/>
<path d="M28.9713 34.7884C27.814 32.0882 28.3284 29.967 28.9713 29.0026C28.9713 28.6812 29.8392 27.7485 31.3822 28.52C33.311 29.4844 33.7931 30.9309 34.2753 32.3775C34.6611 33.5347 34.1146 35.1099 33.7931 35.7528C32.668 36.5564 30.1285 37.4886 28.9713 34.7884Z" fill="white"/>
<path d="M36.6378 30.0792C35.909 28.5222 36.2329 27.2992 36.6378 26.7431C36.6378 26.5578 37.1845 26.02 38.1562 26.4649C39.3709 27.0209 39.6746 27.855 39.9783 28.689C40.2212 29.3563 39.877 30.2645 39.6746 30.6352C38.966 31.0986 37.3667 31.6361 36.6378 30.0792Z" fill="#362F29"/>
<path d="M27.9584 32.7889C27.2296 31.2319 27.5535 30.0089 27.9584 29.4528C27.9584 29.2675 28.505 28.7297 29.4768 29.1746C30.6915 29.7306 30.9951 30.5647 31.2988 31.3988C31.5418 32.066 31.1976 32.9742 30.9951 33.3449C30.2866 33.8083 28.6872 34.3458 27.9584 32.7889Z" fill="#362F29"/>
<g clip-path="url(#clip0_1131_828)">
<path d="M43.0421 43.6729L41.0755 52.1285L40.3747 55.1427C40.3306 55.3322 40.53 55.4856 40.7019 55.3944L43.4351 53.9438L51.1036 49.8749L43.042 43.673L43.0421 43.6729Z" fill="white"/>
<path d="M41.0755 52.1284L40.3727 55.1508C40.3294 55.3371 40.5254 55.4879 40.6944 55.3983L43.435 53.9436L41.0755 52.1284Z" fill="#2D343C"/>
<path d="M43.0417 43.6729L43.2308 45.9095L44.924 45.1205L49.2276 48.4316L48.7614 50.164L51.1036 49.8748L77.079 16.109L69.017 9.90708L43.0417 43.6729Z" fill="#3CCA9A"/>
<path d="M44.9241 45.1205L45.4807 48.8433L49.2277 48.4316L75.197 14.6611L70.8992 11.3549L44.9241 45.1205Z" fill="#3CCA9A"/>
<path d="M72.3902 5.52259L80.4517 11.7241L77.0788 16.1086L69.0173 9.90707L72.3902 5.52259Z" fill="#DDE0E6"/>
<path d="M74.272 6.9703L78.5759 10.2812L75.203 14.6657L70.8991 11.3548L74.272 6.9703Z" fill="#DDE0E6"/>
<path d="M75.2887 1.75466L72.3898 5.52302L80.4514 11.7246L83.3502 7.95616C84.1663 6.89522 84.0032 5.38979 83.003 4.52632C82.9667 4.49487 82.9296 4.46442 82.8916 4.4352L78.8094 1.29499C78.7732 1.26709 78.7366 1.24068 78.6991 1.21549C77.6073 0.464063 76.1062 0.691994 75.2887 1.75466Z" fill="#44536A"/>
<path d="M77.6673 2.85256C78.3038 2.41942 79.3517 1.71191 79.377 1.73136L80.8539 2.86749L82.3306 4.00352C82.3559 4.02297 81.9408 5.21728 81.6854 5.94363C81.5585 6.30454 81.3751 6.64275 81.1418 6.94594L78.5759 10.2815L76.4239 8.626L74.2719 6.97053L76.8379 3.63501C77.0711 3.33181 77.351 3.06782 77.6673 2.85256Z" fill="#44536A"/>
</g>
<defs>
<clipPath id="clip0_1131_828">
<rect width="49.4697" height="49.4702" fill="white" transform="matrix(-0.991604 0.12931 0.12931 0.991604 83.0547 0)"/>
</clipPath>
</defs>
</svg>
