<svg width="65" height="65" viewBox="0 0 65 65" fill="none" xmlns="http://www.w3.org/2000/svg">
<path d="M48.5465 6.20093C58.3237 11.4802 55.2135 21.6113 52.4363 26.0169C58.84 30.2645 61.0781 33.2849 61.3967 34.2642C65.813 49.4577 52.473 52.1321 45.2509 51.5701C39.9347 64.1706 35.8315 62.4018 27.4907 60.8228C20.818 59.5596 17.7641 53.7016 17.7619 50.0027C12.4202 51.3061 9.41714 48.0618 7.54909 46.3298C-0.185628 39.5155 5.12838 31.1377 9.18807 27.0613C5.62678 24.2535 1.45508 15.2847 9.77183 7.78613C18.0886 0.28754 28.7063 4.56947 32.9756 7.64775C37.4039 2.3937 45.2013 4.49401 48.5465 6.20093Z" fill="#3CCA9A"/>
<path d="M38.763 27.6137C38.4083 27.9633 38.0764 28.3831 37.589 28.5498C37.1232 28.7091 36.6209 28.7183 36.1685 28.6499C35.3499 28.5261 34.8848 27.9091 34.3832 27.3269" stroke="#424242" stroke-width="2" stroke-linecap="round"/>
<path d="M31.4916 26.3712C31.0224 26.7754 30.4316 27.3269 29.7868 27.2477C29.4846 27.2106 29.1732 27.3046 28.8543 27.2446C27.7274 27.0324 26.978 26.0847 26.577 25.0926" stroke="#424242" stroke-width="2" stroke-linecap="round"/>
<path d="M41.4163 32.2937C37.6919 34.5333 28.9829 37.0959 23.9417 29.43" stroke="#424242" stroke-width="2" stroke-linecap="round"/>
</svg>
